<?xml version="1.0" encoding="UTF-8"?>
<svg id="Layer_1" data-name="Layer 1" xmlns="http://www.w3.org/2000/svg" viewBox="0 0 1280 406.13">
  <g>
    <path d="m355.44,399.58c-2.74,1.95-5.96,2.92-9.57,2.92-5.02,0-9.19-1.75-12.53-5.24-3.34-3.51-5.02-7.76-5.02-12.78s1.68-9.44,5.02-12.95c3.34-3.48,7.51-5.21,12.53-5.19,3.58,0,6.77.99,9.54,2.97,2.79,1.95,4.87,4.57,6.2,7.83l3.29-.89c-1.63-3.93-4.13-7.12-7.51-9.52-3.39-2.4-7.22-3.61-11.52-3.61-5.83,0-10.8,2.08-14.85,6.23-4.05,4.15-6.08,9.19-6.08,15.13s2,10.9,6.05,15.08c4.03,4.15,9,6.23,14.88,6.23,4.33,0,8.21-1.21,11.62-3.61,3.39-2.42,5.86-5.59,7.41-9.52l-3.29-.89c-1.33,3.24-3.41,5.86-6.18,7.81Z"/>
    <path d="m415.74,363.89h-6.11l-16.51,41.77h3.58l4.35-10.8h23.08l4.23,10.8h3.58l-16.21-41.77Zm-13.62,27.88l10.58-26.87,10.31,26.87h-20.88Z"/>
    <path d="m477.78,382.92l17.47-19.03h-4.23l-24.1,26.32v-26.32h-3.36v41.77h3.36v-10.92l8.58-9.29,16.16,20.22h4.25l-18.14-22.74Z"/>
    <path d="m555.29,367v-3.11h-28.77v41.77h28.77v-3.16h-25.43v-16.24h23.04v-3.04h-23.04v-16.21h25.43Z"/>
    <path d="m615.47,387.29c-2.42-1.8-6.25-3.26-11.44-4.42-1.8-.4-3.21-.74-4.28-1.01-1.06-.27-2.2-.67-3.46-1.14-1.26-.47-2.23-.96-2.89-1.46-.69-.49-1.24-1.14-1.71-1.9-.44-.79-.69-1.66-.69-2.6,0-2.64,1.19-4.67,3.56-6.13,2.37-1.46,5.17-2.17,8.38-2.17,5.73,0,10.8,2.03,15.22,6.08v-3.81c-4.28-3.58-9.34-5.36-15.22-5.36-4.1,0-7.66.96-10.68,2.94-3.01,1.98-4.52,4.75-4.52,8.33,0,1.19.15,2.27.49,3.24.35.99.89,1.83,1.68,2.57.77.74,1.56,1.36,2.37,1.88.82.52,1.95,1.01,3.39,1.51,1.43.47,2.72.86,3.88,1.19,1.14.32,2.67.69,4.57,1.14,4.08.86,7.04,1.98,8.92,3.34,1.9,1.36,2.84,3.14,2.84,5.36,0,2.55-1.09,4.52-3.29,5.93-2.17,1.41-4.82,2.13-7.86,2.13-6.06,0-11.77-2.4-17.13-7.22v3.81c5.51,4.42,11.22,6.62,17.05,6.62,4.13,0,7.59-.96,10.36-2.92,2.77-1.95,4.15-4.77,4.15-8.48-.05-3.16-1.29-5.66-3.71-7.44Z"/>
    <path d="m728.82,369.65c-4.05-4.15-8.97-6.23-14.73-6.23s-10.8,2.08-14.85,6.23c-4.05,4.15-6.08,9.19-6.08,15.13s2,10.92,6.05,15.1c4.03,4.18,9,6.25,14.88,6.25s10.78-2.08,14.83-6.23c4.03-4.15,6.06-9.19,6.06-15.13-.05-5.93-2.1-10.97-6.15-15.13Zm-2.27,27.93c-3.34,3.51-7.49,5.29-12.46,5.29s-9.19-1.78-12.53-5.29c-3.34-3.53-5.02-7.79-5.02-12.8s1.68-9.34,5.04-12.85c3.36-3.51,7.54-5.29,12.51-5.29s9.07,1.78,12.43,5.31c3.36,3.53,5.04,7.81,5.04,12.83s-1.66,9.27-5.02,12.8Z"/>
    <path d="m796.07,367v-3.11h-28.69v41.77h3.34v-19.4h22.96v-3.04h-22.96v-16.21h25.36Z"/>
    <path d="m868.78,363.89v3.16h15.03v38.61h3.34v-38.61h14.63v-3.16h-32.99Z"/>
    <path d="m963.05,363.89v19.33h-26.07v-19.33h-3.34v41.77h3.34v-19.4h26.07v19.4h3.34v-41.77h-3.34Z"/>
    <path d="m1028.91,367v-3.11h-28.77v41.77h28.77v-3.16h-25.43v-16.24h23.03v-3.04h-23.03v-16.21h25.43Z"/>
    <path d="m1125.6,363.89h-6.08l-16.53,41.77h3.58l4.35-10.8h23.11l4.23,10.8h3.58l-16.24-41.77Zm-13.59,27.88l10.55-26.87,10.33,26.87h-20.89Z"/>
    <path d="m1193.08,388.7c2.99-.42,5.49-1.75,7.46-3.95,1.98-2.2,2.99-4.97,2.99-8.26,0-3.51-1.14-6.48-3.41-8.92-2.27-2.45-5.34-3.68-9.19-3.68h-17.47v41.77h3.34v-16.63h12.7l10.63,16.63h3.83l-10.87-16.95Zm-16.29-2.74v-19.03h14.14c2.94,0,5.24.91,6.87,2.72,1.63,1.8,2.45,4.08,2.45,6.77,0,2.94-.96,5.26-2.87,6.99-1.9,1.71-4.35,2.55-7.34,2.55h-13.25Z"/>
    <path d="m1233.11,363.89v3.16h15.03v38.61h3.34v-38.61h14.63v-3.16h-33Z"/>
  </g>
  <path d="m124.17,148.39c28.35-8.75,54.05-33.29,54.05-69.53,0-52.3-42.07-73.03-77.43-73.03H0v3.51h13.45c5.54,0,14.9,2.62,14.9,18.69v247.75c0,16.09-9.37,18.71-14.9,18.71H0v3.51h127.38c36.53,0,70.12-29.51,70.12-73.33,0-41.5-31.56-73.06-73.33-76.27ZM49.68,9.34h36.53c25.75,0,43.95,10.38,55.31,25.04,1.33,1.71,2.57,3.51,3.73,5.34.59.91,1.14,1.83,1.66,2.77.4.69.77,1.41,1.16,2.13.74,1.43,1.43,2.89,2.08,4.37.32.74.62,1.48.91,2.22.39.99.77,1.98,1.11,2.99,1.38,4.03,2.42,8.16,3.11,12.28.67,4.13,1.01,8.28,1.01,12.38,0,.89-.02,1.8-.02,2.69-.05,1.8-.15,3.56-.3,5.31-.07.89-.15,1.75-.25,2.62-.35,2.87-.79,5.71-1.38,8.45-.47,2.08-.99,4.1-1.58,6.08-.2.67-.42,1.33-.64,1.98-.52,1.56-1.09,3.09-1.73,4.6-.62,1.48-1.31,2.97-2.05,4.4-.96,1.9-2.03,3.76-3.21,5.54-.57.89-1.19,1.75-1.81,2.62-.02,0,0,.02,0,.02-.64.84-1.28,1.68-1.98,2.5v.02c-1.36,1.66-2.82,3.21-4.35,4.7-.77.79-1.56,1.51-2.37,2.17-1.63,1.41-3.36,2.74-5.19,4-.91.62-1.85,1.24-2.84,1.8-3.31,1.98-6.92,3.71-10.83,5.14-1.56.57-3.16,1.09-4.82,1.58-7.46,2.13-15.89,3.29-25.33,3.29h-35.94V9.34Zm49.36,285.14h-49.36v-142.58h44.98c61.94,0,82.97,45.58,82.97,73.06s-16.66,69.53-78.6,69.53Z"/>
  <path d="m577.63,118.61s-.89,5.83-11.99,5.83c-18.68,0-19.87-5.83-36.51-5.83-23.08,0-37.39,19.57-45.58,42.93v-43.23h-3.51c0,8.48-10.83,20.14-31.27,20.14v3.51c15.2,0,14.9,10.83,14.9,16.95v116.86c0,16.07-9.37,18.71-14.9,18.71h-13.45v3.51h76.54v-3.51h-13.45c-5.54,0-14.88-2.64-14.88-18.71v-96.69c1.16-18.12,16.07-56.97,45.58-56.97,26.87,0,37.69,26.87,26,59l-21.63,60.18h3.51l44.12-122.69h-3.51Z"/>
  <path d="m620.96,176.45c-6.3-6.48-10.31-13.82-10.31-22.79,0-18.98,15.47-31.83,34.18-31.83s44.41,7.29,44.41,40.61v14.01h3.51v-58.13h-3.51c0,4.97-4.37,5.83-7.88,5.83-15.5,0-22.79-5.83-39.15-5.83-24.84,0-47.06,15.77-47.06,39.15,0,7.04,1.48,13.32,4.05,18.98,17.42,38.53,85.37,49.26,85.37,86.18,0,19.01-12.58,37.69-37.12,37.69-33.59,0-51.11-36.5-51.11-55.78v-14.04h-3.51v73.33h3.21v-12.85c0-1.46,0-4.67,3.21-4.67,4.37,0,22.49,17.52,47.92,17.52,32.13,0,50.25-23.38,50.25-51.14,0-40.14-53.51-52.55-76.47-76.25Z"/>
  <path d="m807.86,118.61c-22.79,0-40.9,5.83-54.62,19.57,8.45,5.26,16.36,11.1,23.36,17.82-32.72,9.94-52.87,38.56-52.87,71.87,0,41.77,31.54,75.95,80.05,75.95,27.76,0,49.08-12.56,62.51-29.21,6.43-6.6,13.05-12.73,19.87-18.41v-63.67c0-42.09-25.41-73.92-78.3-73.92Zm-35.34,22.49c0-10.53,10.8-18.98,35.94-18.98,36.51,0,57.27,27.46,57.27,55.51-13.74-15.79-34.77-25.73-61.94-25.73-8.77,0-16.95,1.19-24.84,3.21-5.86-6.13-6.43-10.5-6.43-14.01Zm31.54,159.24c-37.96,0-62.51-31.86-62.51-71.6,0-31.24,14.9-58.13,39.45-68.36,17.23,18.12,28.03,40.61,28.03,66.91,0,21.03-13.72,33.02-18.69,34.18.59.59,1.75.89,2.62.89,14.04,0,23.38-13.74,23.38-34.48,0-32.43-18.98-54.05-33.02-68.36,6.43-2.35,13.45-3.51,20.74-3.51,35.67,0,53.49,15.47,62.23,28.35v84.13c-13.42,20.17-38.56,31.86-62.23,31.86Z"/>
  <path d="m906.62,294.48v3.51h-22.52c-6.61,0-10.95-2.59-13.69-6.44-2.57-3.61-1.91-8.61,1.18-11.77h0c4.7-4.82,9.59-9.44,14.56-13.82v1.66c0,18.69,4.1,26.87,20.46,26.87Z"/>
  <path d="m960.08,0c0,8.45-10.8,20.14-31.27,20.14v3.51c15.2,0,14.9,10.8,14.9,16.96v178.64c6.62-3.21,13.27-6.15,19.87-8.8V0h-3.51Z"/>
  <path d="m991.94,294.48v3.51h-76.57v-3.51h13.45c5.56,0,14.9-2.62,14.9-18.69v-48.25c1.06-.57,2.15-1.11,3.24-1.63,5.51-2.67,11.1-5.17,16.63-7.46v57.34c0,16.07,9.34,18.69,14.9,18.69h13.45Z"/>
  <path d="m1045.4,0c0,8.45-10.83,20.14-31.27,20.14v3.51c15.2,0,14.9,10.8,14.9,16.96v150.57c6.87-1.33,13.52-2.47,19.87-3.39V0h-3.51Z"/>
  <path d="m1077.23,294.48v3.51h-76.54v-3.51h13.45c5.56,0,14.9-2.62,14.9-18.69v-77.06c.47-.1.94-.2,1.41-.3,6.43-1.24,12.63-2.3,18.46-3.14v80.5c0,16.07,9.34,18.69,14.9,18.69h13.42Z"/>
  <g>
    <path d="m322.24,118.56c-21.45,0-41.2,7.32-56.9,19.57-.96.74-1.01,2.17-.17,3.02l.32.32c.69.67,1.71.77,2.5.27,10.16-6.55,23.01-10.33,37.89-10.33,56.38,0,96.42,48.52,96.42,100.52,0,12.7-3.61,24.3-10.21,33.76-.57.79-.49,1.88.2,2.57h.02c.84.86,2.27.79,2.99-.15,12.26-15.72,19.57-35.47,19.57-56.92,0-50.94-41.7-92.63-92.63-92.63Zm57.09,162.68l-.35-.35c-.67-.67-1.71-.77-2.5-.25-10.16,6.52-23.01,10.31-37.89,10.31-59,0-96.42-47.63-96.42-100.52,0-12.68,3.61-24.3,10.23-33.76.54-.79.47-1.85-.22-2.55-.4-.4-.91-.59-1.43-.59-.59,0-1.19.25-1.58.74-12.23,15.72-19.57,35.47-19.57,56.92.03,51.11,41.52,92.61,92.63,92.61,21.45,0,41.23-7.29,56.92-19.55.96-.74,1.01-2.17.17-3.02Z"/>
    <path d="m344.98,212.55c-14.07,3.22-18.15,7.29-21.36,21.36-.33,1.45-2.41,1.45-2.74,0-3.22-14.07-7.29-18.15-21.36-21.36-1.45-.33-1.45-2.41,0-2.74,14.07-3.22,18.15-7.29,21.36-21.36.33-1.45,2.41-1.45,2.74,0,3.22,14.07,7.29,18.15,21.36,21.36,1.45.33,1.45,2.41,0,2.74Z"/>
  </g>
  <path d="m1116.78,180.08l-.2,3.39c-.32.05-1.41.02-3.14,0h-2.59c-2.03-.02-4.57-.02-7.56,0-1.58.02-3.29.05-5.12.1-11.99.3-29.11,1.29-49.26,4.23-6.35.91-13,2.05-19.87,3.39-20.34,4.03-42.73,10.11-65.45,19.28-6.6,2.64-13.25,5.59-19.87,8.8-19.67,9.56-39.22,21.65-57.56,36.95-6.82,5.68-13.45,11.81-19.87,18.41l-3.71-1.06c7.56-7.79,15.45-14.9,23.58-21.45,18.34-14.76,37.89-26.52,57.56-35.89,6.62-3.16,13.25-6.03,19.87-8.65,22.71-9.07,45.11-15.18,65.45-19.3,6.9-1.38,13.52-2.55,19.87-3.53,20.69-3.16,38.18-4.3,50.22-4.65h.05c5.12-.15,9.24-.17,12.23-.12h1.29c2.52.05,3.93.12,4.08.12Z"/>
  <g>
    <path d="m1112.8,175.01c.27-.96.57-1.9.94-2.84-.05.15-.1.27-.12.4-.3.82-.57,1.63-.82,2.45Z"/>
    <path d="m1187.39,118.61c-41.35,0-72.44,20.56-85.62,53.98-.35.82-.67,1.66-.96,2.5-.59,1.63-1.14,3.29-1.63,4.99-.35,1.11-.67,2.25-.96,3.39h168.07s-3.81-64.85-78.89-64.85Zm-75.98,61.34c.2-.84.42-1.68.64-2.52.03-.05.03-.12.05-.17t.03-.05c.1-.37.2-.72.32-1.06.12-.4.22-.74.35-1.14.25-.82.52-1.63.82-2.45.03-.12.07-.25.12-.4.32-.94.67-1.88,1.04-2.79.37-.91.74-1.8,1.14-2.72.37-.89.77-1.78,1.24-2.67.42-.89.87-1.75,1.33-2.62.45-.86.91-1.73,1.41-2.57,0,0,.03,0,.03-.02.42-.72.84-1.43,1.29-2.15.02-.05.07-.12.1-.17.07-.12.17-.27.25-.4.15-.22.3-.44.45-.67.32-.49.64-.96.96-1.43.3-.42.57-.84.87-1.24.27-.4.57-.79.89-1.21.57-.77,1.16-1.53,1.75-2.27.69-.86,1.41-1.71,2.15-2.55,1.16-1.33,2.4-2.64,3.66-3.88.69-.67,1.38-1.33,2.08-1.98.62-.57,1.24-1.11,1.88-1.63.39-.35.79-.67,1.19-1.01.59-.47,1.21-.94,1.8-1.41.62-.47,1.21-.91,1.83-1.36.79-.57,1.58-1.11,2.37-1.63.4-.27.82-.52,1.21-.77.42-.27.82-.52,1.24-.77.77-.47,1.51-.91,2.3-1.33h.02c.1-.07.22-.12.32-.17.62-.35,1.24-.67,1.88-.99.32-.17.64-.35.96-.47.47-.25.96-.47,1.43-.69.1-.05.2-.1.3-.15.05-.02.07-.02.12-.05.2-.1.4-.2.59-.27.1-.05.17-.07.27-.12.52-.22,1.06-.44,1.58-.67.02,0,.05-.02.07-.02.42-.17.82-.32,1.21-.47.54-.22,1.09-.42,1.63-.62.27-.1.54-.2.84-.27.64-.25,1.31-.44,1.98-.67.25-.07.52-.15.77-.22.79-.25,1.58-.47,2.4-.67.82-.22,1.66-.42,2.52-.62.89-.2,1.78-.37,2.67-.52.15-.02.27-.05.42-.07.87-.17,1.75-.3,2.64-.42,1.88-.25,3.78-.42,5.68-.52.4-.02.82-.05,1.21-.05.91-.07,1.8-.07,2.72-.07,32.72,0,63.4,23.95,63.99,57.83h-135Z"/>
    <path d="m1280,211.22c0,55.51-37.1,92.61-92.61,92.61s-92.61-37.1-92.61-92.61c0-7.04.59-13.79,1.78-20.19.59-.02,1.19-.02,1.78-.05,3.61-.07,6.72-.1,9.32-.1h2.15c-.27,2.55-.42,5.12-.42,7.79,0,50.54,35.94,91.15,91.45,91.15,44.69,0,75.66-30.67,75.66-78.6h3.51Z"/>
  </g>
  <path d="m85.62,148.39c16.78,0,30.38-3.66,40.98-10.01-10.6,6.38-24.2,10.03-40.98,10.03h-35.94v-.02h35.94Z"/>
  <path d="m129.44,136.58c1.83-1.26,3.56-2.6,5.19-4-1.66,1.43-3.36,2.77-5.19,4Z"/>
  <path d="m137,130.4c3.09-2.99,5.81-6.3,8.13-9.86-2.32,3.58-5.04,6.9-8.13,9.86Z"/>
  <path d="m141.52,34.38c1.33,1.71,2.59,3.51,3.73,5.34-1.16-1.83-2.4-3.63-3.73-5.34Z"/>
  <path d="m151.06,51.21c-1.19-2.99-2.57-5.91-4.15-8.72,1.61,2.82,2.99,5.73,4.15,8.72Z"/>
  <path d="m148.34,115c1.46-2.87,2.72-5.88,3.78-9-1.04,3.11-2.3,6.13-3.78,9Z"/>
  <path d="m152.13,106.01c1.75-5.21,2.94-10.75,3.61-16.51-.64,5.76-1.83,11.3-3.61,16.51Z"/>
  <path d="m156.33,78.87c0,3.61-.2,7.17-.59,10.63.37-3.46.57-7.02.57-10.63,0-8.18-1.36-16.61-4.13-24.67,2.79,8.06,4.15,16.49,4.15,24.67Z"/>
</svg>